<?xml version="1.0" encoding="UTF-8"?>
<svg width="52px" height="42px" viewBox="0 0 52 42" version="1.1" xmlns="http://www.w3.org/2000/svg" xmlns:xlink="http://www.w3.org/1999/xlink">
    <!-- Generator: Sketch 59.1 (86144) - https://sketch.com -->
    <title>Text logo</title>
    <desc>Created with Sketch.</desc>
    <g id="PC" stroke="none" stroke-width="1" fill="none" fill-rule="evenodd">
        <g id="PC:-Profile" transform="translate(-70.000000, -66.000000)" fill="#FFFFFF" fill-rule="nonzero">
            <g id="Text-logo" transform="translate(70.000000, 66.000000)">
                <path d="M42.1205519,20.9991131 C42.1205519,9.40161791 32.6914452,0 21.060276,0 C9.42900145,0 0,9.40161791 0,20.9991131 C0,30.6578651 6.53999492,38.7935515 15.4454168,41.243728 C16.3475127,41.4910976 17.2650036,41.6786196 18.1913399,41.8050343 C22.9049455,42.4482371 27.8473711,41.5102068 32.1533551,38.8386996 C29.4068845,35.9280125 27.324655,32.3871421 26.1484386,28.4565281 C24.5914524,29.5169833 22.8175454,30.0276817 21.060276,30.0295717 L21.060276,30.0287317 C16.0588395,30.0287317 12.0043573,25.9859824 12.0043573,20.9991131 C12.0043573,16.0122017 16.0588395,11.9694945 21.060276,11.9694945 C26.0616703,11.9694945 30.1161946,16.0122017 30.1161946,20.9991131 C30.1161946,32.5965032 39.5453014,41.9982261 51.1764706,41.9982261 L51.1764706,30.0287317 C46.1750763,30.0287317 42.1205519,25.9859824 42.1205519,20.9991131 Z" id="Combined-Shape"></path>
            </g>
        </g>
    </g>
</svg>