<?xml version="1.0" encoding="UTF-8"?>
<svg width="290px" height="42px" viewBox="0 0 290 42" version="1.1" xmlns="http://www.w3.org/2000/svg" xmlns:xlink="http://www.w3.org/1999/xlink">
    <!-- Generator: Sketch 59.1 (86144) - https://sketch.com -->
    <title>Text logo</title>
    <desc>Created with Sketch.</desc>
    <g id="PC" stroke="none" stroke-width="1" fill="none" fill-rule="evenodd">
        <g id="PC:-Sign-up---empty" transform="translate(-69.000000, -66.000000)" fill="#FFFFFF" fill-rule="nonzero">
            <g id="Text-logo" transform="translate(69.000000, 66.000000)">
                <path d="M129.63895,14.2630156 L129.63895,19.7052085 L133.267582,19.7052085 L133.267582,24.4394265 L129.63895,24.4394265 L129.63895,34.4537079 C129.63895,35.2765781 129.78842,35.8498113 130.087362,36.1734073 C130.386303,36.4972105 130.977506,36.6590085 131.86097,36.6590085 C132.540478,36.6590085 133.111431,36.6186108 133.573413,36.5376082 L133.573413,41.413301 C132.33673,41.8044337 131.045561,42 129.700116,42 C127.335304,42 125.588834,41.4470693 124.460706,40.3410007 C123.332577,39.2351393 122.768513,37.5558376 122.768513,35.3035099 L122.768513,24.4394265 L119.95529,24.4394265 L119.95529,19.7052085 L122.768513,19.7052085 L122.768513,14.2630156 L129.63895,14.2630156 Z M21.060276,0 C32.6914452,0 42.1205519,9.40161791 42.1205519,20.9991131 C42.1205519,25.9859824 46.1750763,30.0287317 51.1764706,30.0287317 L51.1764706,30.0287317 L51.1764706,41.9982261 C39.5453014,41.9982261 30.1161946,32.5965032 30.1161946,20.9991131 C30.1161946,16.0122017 26.0616703,11.9694945 21.060276,11.9694945 C16.0588395,11.9694945 12.0043573,16.0122017 12.0043573,20.9991131 C12.0043573,25.9859824 16.0588395,30.0287317 21.060276,30.0287317 L21.060276,30.0287317 C22.8175454,30.0276817 24.5914524,29.5169833 26.1484386,28.4565281 C27.324655,32.3871421 29.4068845,35.9280125 32.1533551,38.8386996 C27.8473711,41.5102068 22.9049455,42.4482371 18.1913399,41.8050343 C17.2650036,41.6786196 16.3475127,41.4910976 15.4454168,41.243728 C6.53999492,38.7935515 0,30.6578651 0,20.9991131 C0,9.40161791 9.42900145,0 21.060276,0 Z M108.783393,19.3005892 C111.692019,19.3005892 114.029692,19.9547421 115.796411,21.2629235 C117.56334,22.5713949 118.446595,24.2908872 118.446595,26.4220217 L111.556118,26.4220217 C111.556118,24.668554 110.625057,23.7918201 108.763144,23.7918201 C108.04272,23.7918201 107.437948,23.994223 106.948619,24.3988216 C106.459499,24.7899543 106.214834,25.282392 106.214834,25.8757204 C106.214834,26.4827219 106.513776,26.9749524 107.111659,27.3526192 C107.709751,27.730286 108.661061,28.0404161 109.965799,28.2832167 C111.284106,28.5260173 112.439373,28.8160521 113.4316,29.1531141 C116.747722,30.2861144 118.405887,32.315944 118.405887,35.2428098 C118.405887,37.238871 117.508854,38.8641019 115.714787,40.1185026 C113.934498,41.3729032 111.623964,42 108.783393,42 C106.894342,42 105.209038,41.6629381 103.727691,40.9883999 C102.246135,40.3140689 101.090868,39.3969373 100.261889,38.2370052 C99.4329112,37.077073 99.0183177,35.8564406 99.0183177,34.5751082 L105.440133,34.5751082 C105.467272,35.5867082 105.806921,36.3285759 106.459499,36.800504 C107.111659,37.2591734 107.947526,37.4885081 108.966892,37.4885081 C109.904633,37.4885081 110.604599,37.2995711 111.066789,36.9219043 C111.54234,36.5442375 111.780324,36.052007 111.780324,35.4450055 C111.780324,34.865143 111.474493,34.3998443 110.862832,34.0491093 C110.25138,33.6985815 109.089224,33.3343806 107.376782,32.9567138 C105.664339,32.579047 104.250838,32.0868164 103.136488,31.479815 C102.021929,30.8593476 101.172492,30.1108505 100.58797,29.2341166 C100.003656,28.3573828 99.7113944,27.3526192 99.7113944,26.2196189 C99.7113944,24.2100918 100.547262,22.5577219 102.218996,21.2629235 C103.890731,19.9547421 106.078933,19.3005892 108.783393,19.3005892 Z M60.6713414,19.7052085 L60.6713414,33.927709 C60.6713414,35.802577 61.5886243,36.7398039 63.4233989,36.7398039 C64.9999397,36.7398039 66.1211792,36.1802438 66.7871174,35.0607094 L66.7871174,19.7052085 L73.6982617,19.7052085 L73.6982617,41.5954014 L67.2561968,41.5954014 L67.0522402,39.2283028 C65.5980315,41.0760319 63.6340357,42 61.1604615,42 C58.7413732,42 56.9065986,41.3053666 55.6561378,39.9163069 C54.4194551,38.5135741 53.800905,36.5038398 53.800905,33.8873113 L53.800905,19.7052085 L60.6713414,19.7052085 Z M87.4184675,19.3005892 C90.5170633,19.3005892 92.963499,20.2582014 94.7575657,22.1734257 C96.5516325,24.0752256 97.4484571,26.7321518 97.4484571,30.1446189 L97.4484571,32.7949158 L83.7896262,32.7949158 C84.0342906,34.0221775 84.5710076,34.9865433 85.4001946,35.6878061 C86.2291728,36.3892761 87.3028155,36.7398039 88.6211226,36.7398039 C90.7957553,36.7398039 92.4946284,35.9846775 93.7177418,34.4740103 L96.8572543,38.1560026 C96.0011375,39.3294007 94.7847043,40.2668347 93.2081634,40.9683047 C91.6451919,41.6561016 89.9598881,42 88.152252,42 C84.7680752,42 82.029587,41.0018658 79.9365787,39.0058046 C77.8435704,36.9960704 76.7970663,34.3863784 76.7970663,31.1763142 L76.7970663,30.6099176 C76.7970663,28.3708487 77.211451,26.3950899 78.040638,24.6820199 C78.8831855,22.969157 80.1065078,21.6474268 81.7101872,20.7167879 C83.3138666,19.7726623 85.2166962,19.3005892 87.4184675,19.3005892 Z M239.645469,19.3005892 C242.45744,19.3005892 244.680713,19.9817153 246.311114,21.3439261 C247.941514,22.7062611 248.778634,24.5742927 248.818298,26.9480206 L248.818298,36.638706 C248.845437,38.6484403 249.158574,40.1860393 249.755622,41.251503 L249.755622,41.5954014 L242.885394,41.5954014 C242.641147,41.1504051 242.424039,40.4961694 242.234069,39.6329014 C240.968995,41.2111052 239.202902,42 236.933702,42 C234.854472,42 233.086291,41.3795326 231.633335,40.138805 C230.178291,38.8844043 229.451813,37.313037 229.451813,35.4249102 C229.451813,33.0511823 230.33486,31.2573168 232.100953,30.0433138 C233.869134,28.829518 236.436858,28.2225166 239.8083,28.2225166 L241.927195,28.2225166 L241.927195,27.0694209 C241.927195,25.0596867 241.050411,24.0549231 239.298931,24.0549231 C237.666443,24.0549231 236.852286,24.8506544 236.852286,26.442117 L229.982059,26.442117 C229.982059,24.3246555 230.885981,22.6049561 232.691738,21.2832259 C234.514196,19.961475 236.83141,19.3005892 239.645469,19.3005892 Z M157.242192,19.3005892 C160.544954,19.3005892 163.14754,20.3189015 165.05037,22.3555262 C166.952991,24.3787263 167.904301,27.1367504 167.904301,30.6300129 L167.904301,30.8728135 C167.904301,34.2852805 166.946311,36.9960704 165.029912,39.0058046 C163.127082,41.0018658 160.544954,42 157.283109,42 C154.143388,42 151.622425,41.0694025 149.719596,39.2082075 C147.816766,37.3333395 146.79072,34.7978135 146.641249,31.6012153 L146.620791,30.4479124 C146.620791,28.2631214 147.048954,26.3209239 147.90528,24.6213197 C148.761396,22.9084569 149.991399,21.5935632 151.595078,20.6763073 C153.198966,19.7591757 155.081338,19.3005892 157.242192,19.3005892 Z M219.64436,19.3005892 C224.115957,19.3005892 226.414383,21.9846959 226.535463,27.3526192 L226.535463,41.5954014 L219.64436,41.5954014 L219.64436,27.7775203 C219.64436,26.6579858 219.45439,25.8419521 219.07445,25.3294191 C218.69451,24.8168861 218.001434,24.5606196 216.99522,24.5606196 C215.636205,24.5606196 214.623728,25.1609917 213.95779,26.3613216 L213.978666,26.6445199 L213.978666,41.5954014 L207.087354,41.5954014 L207.087354,27.817918 C207.087354,26.6714517 206.903855,25.8419521 206.536859,25.3294191 C206.169862,24.8168861 205.469896,24.5606196 204.436961,24.5606196 C203.118654,24.5606196 202.113067,25.1609917 201.419781,26.3613216 L201.419781,41.5954014 L194.549554,41.5954014 L194.549554,19.7052085 L200.991827,19.7052085 L201.216033,22.2745236 C202.779005,20.2919283 204.878693,19.3005892 207.515516,19.3005892 C210.302437,19.3005892 212.183347,20.3998212 213.162422,22.5983267 C214.65713,20.3998212 216.817775,19.3005892 219.64436,19.3005892 Z M183.765112,19.3005892 C186.062077,19.3005892 187.77452,19.9817153 188.902439,21.3439261 C190.044137,22.7062611 190.63534,24.7561859 190.676048,27.494322 L190.676048,41.5954014 L183.785571,41.5954014 L183.785571,27.7775203 C183.785571,26.6714517 183.561156,25.8622545 183.112743,25.3497215 C182.664331,24.8237226 181.848713,24.5606196 180.666308,24.5606196 C179.320862,24.5606196 178.321955,25.0866185 177.669586,26.1388234 L177.669586,41.5954014 L170.799358,41.5954014 L170.799358,19.7052085 L177.241423,19.7052085 L177.465629,22.2745236 C178.987893,20.2919283 181.087581,19.3005892 183.765112,19.3005892 Z M143.236614,19.7052085 L143.236614,41.5954014 L136.346137,41.5954014 L136.346137,19.7052085 L143.236614,19.7052085 Z M264.189154,19.3005892 C264.923982,19.3005892 265.562782,19.3815089 266.105553,19.5433691 L265.984473,25.8757204 L263.721536,25.7139224 C261.56089,25.7139224 260.174736,26.3882534 259.563075,27.7369154 L259.563075,41.5954014 L252.692848,41.5954014 L252.692848,19.7052085 L259.135121,19.7052085 L259.358492,22.5173242 C260.512924,20.372848 262.124537,19.3005892 264.189154,19.3005892 Z M275.382761,10.5 L275.382761,27.0087208 L276.075838,26.0982186 L281.253037,19.7052085 L289.49063,19.7052085 L281.762407,28.7081178 L290,41.5954014 L282.129821,41.5954014 L277.317948,33.442315 L275.382761,35.3642101 L275.382761,41.5954014 L268.512533,41.5954014 L268.512533,10.5 L275.382761,10.5 Z M241.927195,31.8641111 L239.92938,31.8641111 C237.537013,31.8641111 236.342917,32.929782 236.342917,35.0607094 C236.342917,35.6811767 236.551675,36.1868732 236.973366,36.5780059 C237.395057,36.9556727 237.931565,37.1446097 238.584978,37.1446097 C239.440886,37.1446097 240.146488,36.9625092 240.703872,36.5983083 C241.275869,36.2341074 241.682948,35.8226723 241.927195,35.3642101 L241.927195,31.8641111 Z M157.242192,24.5606196 C154.945436,24.5606196 153.701864,26.2533872 153.511477,29.6387152 L153.491019,30.8728135 C153.491019,32.8960136 153.810419,34.3795418 154.449218,35.3238124 C155.088018,36.2678758 156.032648,36.7398039 157.283109,36.7398039 C159.729336,36.7398039 160.979797,34.8719795 161.034074,31.1359165 L161.034074,30.4479124 C161.034074,26.5231196 159.770252,24.5606196 157.242192,24.5606196 Z M87.3775509,24.5606196 C85.366167,24.5606196 84.1701921,25.8825569 83.7896262,28.5260173 L90.7210199,28.5260173 L90.7210199,28.0000184 C90.7481585,26.9076229 90.4694665,26.0646574 89.8851527,25.4711218 C89.3006301,24.8641203 88.4649716,24.5606196 87.3775509,24.5606196 Z M139.750564,10.7427799 C140.878692,10.7427799 141.795975,11.0529929 142.50283,11.6734188 C143.209476,12.2938448 143.562903,13.0895968 143.562903,14.0606955 C143.562903,15.0317943 143.209476,15.8275671 142.50283,16.447993 C141.795975,17.068419 140.878692,17.3786319 139.750564,17.3786319 C138.622644,17.3786319 137.705152,17.068419 136.998506,16.447993 C136.291651,15.8275671 135.938224,15.0317943 135.938224,14.0606955 C135.938224,13.0895968 136.291651,12.2938448 136.998506,11.6734188 C137.705152,11.0529929 138.622644,10.7427799 139.750564,10.7427799 Z" id="Combined-Shape"></path>
            </g>
        </g>
    </g>
</svg>